<svg width="1200" height="630" viewBox="0 0 1200 630" fill="none" xmlns="http://www.w3.org/2000/svg">
  <defs>
    <linearGradient id="bg" x1="140" y1="80" x2="1060" y2="550" gradientUnits="userSpaceOnUse">
      <stop stop-color="#06131A"/>
      <stop offset="0.45" stop-color="#0A0A14"/>
      <stop offset="1" stop-color="#160B22"/>
    </linearGradient>
    <radialGradient id="glowCyan" cx="0" cy="0" r="1" gradientUnits="userSpaceOnUse" gradientTransform="translate(277 190) rotate(35) scale(332 208)">
      <stop stop-color="#22D3EE" stop-opacity="0.45"/>
      <stop offset="1" stop-color="#22D3EE" stop-opacity="0"/>
    </radialGradient>
    <radialGradient id="glowPurple" cx="0" cy="0" r="1" gradientUnits="userSpaceOnUse" gradientTransform="translate(936 495) rotate(-155) scale(372 246)">
      <stop stop-color="#A855F7" stop-opacity="0.38"/>
      <stop offset="1" stop-color="#A855F7" stop-opacity="0"/>
    </radialGradient>
    <filter id="blur" x="-200" y="-200" width="1600" height="1030" filterUnits="userSpaceOnUse" color-interpolation-filters="sRGB">
      <feGaussianBlur stdDeviation="40"/>
    </filter>
  </defs>

  <rect width="1200" height="630" fill="url(#bg)"/>
  <g filter="url(#blur)">
    <circle cx="277" cy="190" r="190" fill="url(#glowCyan)"/>
    <circle cx="936" cy="495" r="220" fill="url(#glowPurple)"/>
  </g>

  <g opacity="0.8">
    <circle cx="166" cy="128" r="2.5" fill="white"/>
    <circle cx="218" cy="300" r="1.5" fill="#22D3EE"/>
    <circle cx="282" cy="390" r="2" fill="white"/>
    <circle cx="402" cy="156" r="1.5" fill="#F59E0B"/>
    <circle cx="468" cy="272" r="2.5" fill="white"/>
    <circle cx="556" cy="202" r="1.5" fill="#22D3EE"/>
    <circle cx="640" cy="132" r="2" fill="white"/>
    <circle cx="748" cy="262" r="1.5" fill="#A855F7"/>
    <circle cx="884" cy="158" r="2.5" fill="white"/>
    <circle cx="968" cy="248" r="1.5" fill="#F97316"/>
    <circle cx="1034" cy="360" r="2" fill="white"/>
  </g>

  <rect x="80" y="78" width="1040" height="474" rx="36" fill="rgba(255,255,255,0.03)" stroke="rgba(255,255,255,0.08)"/>

  <text x="110" y="176" fill="#22D3EE" font-family="Arial, sans-serif" font-size="22" font-weight="700" letter-spacing="10">ECLABS</text>
  <text x="110" y="264" fill="white" font-family="Arial, sans-serif" font-size="92" font-weight="700">Products for travel,</text>
  <text x="110" y="360" fill="white" font-family="Arial, sans-serif" font-size="92" font-weight="700">spirituality, and play.</text>
  <text x="110" y="430" fill="rgba(255,255,255,0.7)" font-family="Arial, sans-serif" font-size="30" font-weight="400">Atlasly • SaatlikAyet • Nova Gaia • NovaGaia: Ascend</text>

  <g transform="translate(835 152)">
    <rect x="0" y="0" width="210" height="72" rx="36" fill="rgba(34,211,238,0.09)" stroke="rgba(34,211,238,0.28)"/>
    <text x="31" y="45" fill="#B6F6FF" font-family="Arial, sans-serif" font-size="24" font-weight="700">Atlasly</text>

    <rect x="18" y="104" width="244" height="72" rx="36" fill="rgba(245,158,11,0.09)" stroke="rgba(245,158,11,0.28)"/>
    <text x="49" y="149" fill="#FCD38D" font-family="Arial, sans-serif" font-size="24" font-weight="700">SaatlikAyet</text>

    <rect x="-12" y="208" width="232" height="72" rx="36" fill="rgba(168,85,247,0.09)" stroke="rgba(168,85,247,0.28)"/>
    <text x="31" y="253" fill="#E5CCFF" font-family="Arial, sans-serif" font-size="24" font-weight="700">Nova Gaia</text>

    <rect x="26" y="312" width="292" height="72" rx="36" fill="rgba(249,115,22,0.09)" stroke="rgba(249,115,22,0.28)"/>
    <text x="58" y="357" fill="#FFD0B1" font-family="Arial, sans-serif" font-size="24" font-weight="700">NovaGaia: Ascend</text>
  </g>
</svg>
